# Blender v2.78 (sub 0) OBJ File: ''
# www.blender.org
mtllib matugeDHTM.mtl
o 25_glass2_1_1_1.001
v 0.029496 1.551944 0.062944
v 0.033467 1.551739 0.062641
v 0.033164 1.552616 0.062186
v 0.029526 1.552780 0.062591
v 0.026326 1.553139 0.062374
v 0.026205 1.552407 0.062633
v 0.026092 1.551522 0.062552
v 0.029503 1.551040 0.062824
v 0.033721 1.550836 0.062600
v 0.037242 1.552253 0.061532
v 0.036657 1.553152 0.061110
v 0.039525 1.554250 0.059577
v 0.040355 1.553434 0.059619
v 0.042651 1.555079 0.057766
v 0.041514 1.555663 0.058097
v 0.042643 1.557158 0.056991
v 0.043895 1.556766 0.056438
v 0.045058 1.556477 0.055301
v 0.043824 1.554394 0.056715
v 0.041025 1.552637 0.059066
v 0.037723 1.551352 0.061418
v 0.038103 1.550439 0.061115
v 0.041498 1.551681 0.058218
v 0.044630 1.553849 0.055791
v 0.046078 1.556191 0.053984
v 0.046328 1.558720 0.052689
v 0.045547 1.558670 0.054025
v 0.044674 1.558669 0.055197
v 0.043490 1.558740 0.056040
v 0.041899 1.558949 0.056718
v 0.041275 1.557529 0.057343
v 0.040221 1.556198 0.058146
v 0.038503 1.554902 0.059306
v 0.036100 1.553915 0.060535
v 0.032831 1.553506 0.061546
v 0.029575 1.553449 0.062007
v 0.026455 1.553713 0.061876
v 0.023514 1.554084 0.061582
v 0.023404 1.553547 0.061998
v 0.023260 1.552877 0.062225
v 0.023127 1.552187 0.062296
v 0.023032 1.551473 0.062306
v 0.025973 1.550746 0.062453
v 0.029478 1.550127 0.062577
v 0.033956 1.549876 0.062316
v -0.043892 1.556762 0.056439
v -0.043491 1.558741 0.056040
v -0.044675 1.558669 0.055197
v -0.042643 1.557158 0.056984
v -0.041515 1.555662 0.058097
v -0.042654 1.555072 0.057759
v -0.040358 1.553437 0.059620
v -0.039526 1.554251 0.059580
v -0.036660 1.553155 0.061111
v -0.037245 1.552254 0.061532
v -0.033471 1.551742 0.062642
v -0.033168 1.552618 0.062187
v -0.029530 1.552783 0.062591
v -0.029500 1.551947 0.062944
v -0.026208 1.552409 0.062634
v -0.026330 1.553141 0.062374
v -0.023406 1.553548 0.061998
v -0.023262 1.552879 0.062226
v -0.023130 1.552189 0.062294
v -0.026097 1.551523 0.062560
v -0.029507 1.551043 0.062824
v -0.033725 1.550839 0.062600
v -0.037727 1.551355 0.061419
v -0.041025 1.552639 0.059062
v -0.043825 1.554392 0.056715
v -0.045060 1.556530 0.055289
v -0.045547 1.558669 0.054025
v -0.046067 1.556155 0.053984
v -0.046325 1.558716 0.052688
v -0.044631 1.553867 0.055782
v -0.041500 1.551684 0.058218
v -0.038106 1.550442 0.061111
v -0.033961 1.549879 0.062316
v -0.029482 1.550130 0.062577
v -0.025976 1.550749 0.062454
v -0.023035 1.551474 0.062306
v -0.026458 1.553715 0.061876
v -0.023516 1.554085 0.061582
v -0.029579 1.553451 0.062007
v -0.032835 1.553508 0.061546
v -0.036104 1.553918 0.060535
v -0.038505 1.554903 0.059306
v -0.040223 1.556200 0.058146
v -0.041276 1.557529 0.057343
v -0.041903 1.558953 0.056718
vt 0.1490 0.2651
vt 0.3286 0.2651
vt 0.3286 0.1387
vt 0.1490 0.1387
vt 0.0803 0.1387
vt 0.0803 0.2651
vt 0.0803 0.6199
vt 0.1490 0.6199
vt 0.3286 0.6199
vt 0.5078 0.2651
vt 0.5078 0.1387
vt 0.6772 0.1387
vt 0.6772 0.2651
vt 0.8467 0.2651
vt 0.8467 0.1387
vt 0.9209 0.1387
vt 0.9209 0.2651
vt 0.9209 0.6199
vt 0.8467 0.6199
vt 0.6772 0.6199
vt 0.5078 0.6199
vt 0.5078 0.9744
vt 0.6772 0.9744
vt 0.8467 0.9744
vt 0.9209 0.9744
vt 0.9951 0.9744
vt 0.9951 0.6199
vt 0.9951 0.2651
vt 0.9951 0.1387
vt 0.9951 0.0117
vt 0.9209 0.0117
vt 0.8467 0.0117
vt 0.6772 0.0117
vt 0.5078 0.0117
vt 0.3286 0.0117
vt 0.1490 0.0117
vt 0.0803 0.0117
vt 0.0115 0.0117
vt 0.0115 0.1387
vt 0.0115 0.2651
vt 0.0115 0.6199
vt 0.0115 0.9744
vt 0.0803 0.9744
vt 0.1490 0.9744
vt 0.3286 0.9744
vt 0.9209 0.2651
vt 0.9951 0.1387
vt 0.9951 0.2651
vt 0.9209 0.1387
vt 0.8467 0.1387
vt 0.8467 0.2651
vt 0.6772 0.2651
vt 0.6772 0.1387
vt 0.5078 0.1387
vt 0.5078 0.2651
vt 0.3286 0.2651
vt 0.3286 0.1387
vt 0.1490 0.1387
vt 0.1490 0.2651
vt 0.0803 0.2651
vt 0.0803 0.1387
vt 0.0115 0.1387
vt 0.0115 0.2651
vt 0.0115 0.6199
vt 0.0803 0.6199
vt 0.1490 0.6199
vt 0.3286 0.6199
vt 0.5078 0.6199
vt 0.6772 0.6199
vt 0.8467 0.6199
vt 0.9209 0.6199
vt 0.9951 0.6199
vt 0.9209 0.9744
vt 0.9951 0.9744
vt 0.8467 0.9744
vt 0.6772 0.9744
vt 0.5078 0.9744
vt 0.3286 0.9744
vt 0.1490 0.9744
vt 0.0803 0.9744
vt 0.0115 0.9744
vt 0.0803 0.0117
vt 0.0115 0.0117
vt 0.1490 0.0117
vt 0.3286 0.0117
vt 0.5078 0.0117
vt 0.6772 0.0117
vt 0.8467 0.0117
vt 0.9209 0.0117
vt 0.9951 0.0117
vn 0.0090 0.1316 0.9913
vn 0.1579 0.2382 0.9583
vn 0.1334 0.5488 0.8253
vn 0.0586 0.5204 0.8519
vn -0.0223 0.5037 0.8636
vn -0.0945 0.1352 0.9863
vn -0.0948 -0.0919 0.9912
vn -0.0308 -0.1975 0.9798
vn 0.1723 -0.1279 0.9767
vn 0.3219 0.2825 0.9037
vn 0.1732 0.5863 0.7914
vn 0.2694 0.4910 0.8285
vn 0.4990 0.1611 0.8515
vn 0.5656 0.1560 0.8098
vn 0.3321 0.3965 0.8558
vn 0.4026 0.3113 0.8608
vn 0.6041 0.2000 0.7714
vn 0.7647 0.0896 0.6381
vn 0.7034 -0.0408 0.7096
vn 0.6505 -0.1382 0.7468
vn 0.4318 -0.0083 0.9019
vn 0.4873 -0.1175 0.8653
vn 0.6899 -0.2581 0.6763
vn 0.7445 -0.0651 0.6645
vn 0.7974 0.1356 0.5881
vn 0.8326 0.1496 0.5333
vn 0.8371 0.1232 0.5330
vn 0.6996 0.1921 0.6882
vn 0.5245 0.2145 0.8239
vn 0.3665 0.2872 0.8850
vn 0.3106 0.2850 0.9068
vn 0.2340 0.4801 0.8454
vn 0.1528 0.5739 0.8045
vn 0.1402 0.6470 0.7495
vn 0.1295 0.6104 0.7814
vn 0.0685 0.6489 0.7578
vn 0.0153 0.6528 0.7574
vn -0.0122 0.6205 0.7841
vn -0.0456 0.4805 0.8758
vn -0.0759 0.2088 0.9750
vn -0.0700 0.0711 0.9950
vn -0.0802 0.0032 0.9968
vn -0.0664 -0.1157 0.9911
vn -0.0287 -0.2513 0.9675
vn 0.1911 -0.2352 0.9530
vn -0.6110 0.1886 0.7688
vn -0.4808 0.2731 0.8332
vn -0.7385 0.1275 0.6620
vn -0.3965 0.3192 0.8607
vn -0.3377 0.3889 0.8572
vn -0.5677 0.1571 0.8081
vn -0.5001 0.1785 0.8473
vn -0.2617 0.4879 0.8327
vn -0.1876 0.5767 0.7951
vn -0.3129 0.2963 0.9024
vn -0.1569 0.2302 0.9604
vn -0.1405 0.5499 0.8233
vn -0.0457 0.5212 0.8522
vn -0.0013 0.1235 0.9923
vn 0.0763 0.1428 0.9868
vn 0.0214 0.5039 0.8635
vn 0.0397 0.4852 0.8735
vn 0.0980 0.2282 0.9687
vn 0.0873 0.0439 0.9952
vn 0.1002 -0.0960 0.9903
vn 0.0189 -0.1876 0.9821
vn -0.1689 -0.1262 0.9775
vn -0.4376 -0.0330 0.8986
vn -0.6508 -0.1597 0.7422
vn -0.7058 -0.0587 0.7060
vn -0.7580 0.1013 0.6443
vn -0.8138 0.1559 0.5598
vn -0.8080 0.0956 0.5814
vn -0.8495 0.1676 0.5002
vn -0.7430 -0.0449 0.6677
vn -0.6795 -0.2408 0.6930
vn -0.5153 -0.0735 0.8539
vn -0.1920 -0.2330 0.9533
vn 0.0155 -0.2607 0.9653
vn 0.0976 -0.1208 0.9879
vn 0.0445 0.0230 0.9987
vn -0.0087 0.6513 0.7588
vn 0.0020 0.6122 0.7907
vn -0.0609 0.6540 0.7541
vn -0.1274 0.6183 0.7756
vn -0.1315 0.6567 0.7426
vn -0.1753 0.5930 0.7859
vn -0.2147 0.4361 0.8739
vn -0.3159 0.3505 0.8817
vn -0.4079 0.2101 0.8885
usemtl 25_glass2_1_1_1.001
s 1
f 1/1/1 2/2/2 3/3/3
f 4/4/4 1/1/1 3/3/3
f 5/5/5 1/1/1 4/4/4
f 6/6/6 1/1/1 5/5/5
f 7/7/7 1/1/1 6/6/6
f 8/8/8 1/1/1 7/7/7
f 9/9/9 1/1/1 8/8/8
f 2/2/2 1/1/1 9/9/9
f 10/10/10 2/2/2 9/9/9
f 3/3/3 2/2/2 10/10/10
f 11/11/11 3/3/3 10/10/10
f 12/12/12 11/11/11 10/10/10
f 13/13/13 12/12/12 10/10/10
f 14/14/14 12/12/12 13/13/13
f 15/15/15 12/12/12 14/14/14
f 16/16/16 15/15/15 14/14/14
f 17/17/17 16/16/16 14/14/14
f 18/18/18 17/17/17 14/14/14
f 19/19/19 18/18/18 14/14/14
f 20/20/20 19/19/19 14/14/14
f 13/13/13 20/20/20 14/14/14
f 10/10/10 20/20/20 13/13/13
f 21/21/21 20/20/20 10/10/10
f 9/9/9 21/21/21 10/10/10
f 22/22/22 21/21/21 9/9/9
f 20/20/20 21/21/21 22/22/22
f 23/23/23 20/20/20 22/22/22
f 24/24/24 20/20/20 23/23/23
f 19/19/19 20/20/20 24/24/24
f 18/18/18 19/19/19 24/24/24
f 25/25/25 18/18/18 24/24/24
f 26/26/26 18/18/18 25/25/25
f 27/27/27 18/18/18 26/26/26
f 28/28/28 18/18/18 27/27/27
f 17/17/17 18/18/18 28/28/28
f 16/16/16 17/17/17 28/28/28
f 29/29/29 16/16/16 28/28/28
f 30/30/30 16/16/16 29/29/29
f 31/31/31 16/16/16 30/30/30
f 32/32/32 16/16/16 31/31/31
f 15/15/15 16/16/16 32/32/32
f 12/12/12 15/15/15 32/32/32
f 33/33/33 12/12/12 32/32/32
f 34/34/34 12/12/12 33/33/33
f 11/11/11 12/12/12 34/34/34
f 3/3/3 11/11/11 34/34/34
f 35/35/35 3/3/3 34/34/34
f 36/36/36 3/3/3 35/35/35
f 4/4/4 3/3/3 36/36/36
f 5/5/5 4/4/4 36/36/36
f 37/37/37 5/5/5 36/36/36
f 38/38/38 5/5/5 37/37/37
f 39/39/39 5/5/5 38/38/38
f 40/40/40 5/5/5 39/39/39
f 6/6/6 5/5/5 40/40/40
f 7/7/7 6/6/6 40/40/40
f 41/41/41 7/7/7 40/40/40
f 42/42/42 7/7/7 41/41/41
f 43/43/43 7/7/7 42/42/42
f 44/44/44 7/7/7 43/43/43
f 8/8/8 7/7/7 44/44/44
f 9/9/9 8/8/8 44/44/44
f 45/45/45 9/9/9 44/44/44
f 22/22/22 9/9/9 45/45/45
f 46/46/46 47/47/47 48/48/48
f 49/49/49 47/47/47 46/46/46
f 50/50/50 49/49/49 46/46/46
f 51/51/51 50/50/50 46/46/46
f 52/52/52 50/50/50 51/51/51
f 53/53/53 50/50/50 52/52/52
f 54/54/54 53/53/53 52/52/52
f 55/55/55 54/54/54 52/52/52
f 56/56/56 54/54/54 55/55/55
f 57/57/57 54/54/54 56/56/56
f 58/58/58 57/57/57 56/56/56
f 59/59/59 58/58/58 56/56/56
f 60/60/60 58/58/58 59/59/59
f 61/61/61 58/58/58 60/60/60
f 62/62/62 61/61/61 60/60/60
f 63/63/63 62/62/62 60/60/60
f 64/64/64 63/63/63 60/60/60
f 65/65/65 64/64/64 60/60/60
f 66/66/66 65/65/65 60/60/60
f 59/59/59 66/66/66 60/60/60
f 56/56/56 66/66/66 59/59/59
f 67/67/67 66/66/66 56/56/56
f 68/68/68 67/67/67 56/56/56
f 55/55/55 68/68/68 56/56/56
f 52/52/52 68/68/68 55/55/55
f 69/69/69 68/68/68 52/52/52
f 70/70/70 69/69/69 52/52/52
f 51/51/51 70/70/70 52/52/52
f 46/46/46 70/70/70 51/51/51
f 71/71/71 70/70/70 46/46/46
f 72/72/72 71/71/71 46/46/46
f 48/48/48 72/72/72 46/46/46
f 73/73/73 72/72/72 74/74/74
f 71/71/71 72/72/72 73/73/73
f 70/70/70 71/71/71 73/73/73
f 75/75/75 70/70/70 73/73/73
f 76/76/76 70/70/70 75/75/75
f 69/69/69 70/70/70 76/76/76
f 68/68/68 69/69/69 76/76/76
f 77/77/77 68/68/68 76/76/76
f 78/78/78 68/68/68 77/77/77
f 67/67/67 68/68/68 78/78/78
f 66/66/66 67/67/67 78/78/78
f 79/79/79 66/66/66 78/78/78
f 80/80/80 66/66/66 79/79/79
f 65/65/65 66/66/66 80/80/80
f 64/64/64 65/65/65 80/80/80
f 81/81/81 64/64/64 80/80/80
f 82/82/82 62/62/62 83/83/83
f 61/61/61 62/62/62 82/82/82
f 58/58/58 61/61/61 82/82/82
f 84/84/84 58/58/58 82/82/82
f 85/85/85 58/58/58 84/84/84
f 57/57/57 58/58/58 85/85/85
f 54/54/54 57/57/57 85/85/85
f 86/86/86 54/54/54 85/85/85
f 87/87/87 54/54/54 86/86/86
f 53/53/53 54/54/54 87/87/87
f 50/50/50 53/53/53 87/87/87
f 88/88/88 50/50/50 87/87/87
f 89/89/89 50/50/50 88/88/88
f 49/49/49 50/50/50 89/89/89
f 47/47/47 49/49/49 89/89/89
f 90/90/90 47/47/47 89/89/89
o 25_glass3_1_1_1.001
v 0.029496 1.551944 0.062944
v 0.033164 1.552616 0.062186
v 0.033467 1.551739 0.062641
v 0.029526 1.552780 0.062591
v 0.026326 1.553139 0.062374
v 0.026205 1.552407 0.062633
v 0.026092 1.551522 0.062552
v 0.029503 1.551040 0.062824
v 0.033721 1.550836 0.062600
v 0.037242 1.552253 0.061532
v 0.036657 1.553152 0.061110
v 0.039525 1.554250 0.059577
v 0.040355 1.553434 0.059619
v 0.042651 1.555079 0.057766
v 0.041514 1.555663 0.058097
v 0.042643 1.557158 0.056991
v 0.043895 1.556766 0.056438
v 0.045058 1.556477 0.055301
v 0.043824 1.554394 0.056715
v 0.041025 1.552637 0.059066
v 0.037723 1.551352 0.061418
v 0.038103 1.550439 0.061115
v 0.041498 1.551681 0.058218
v 0.044630 1.553849 0.055791
v 0.046078 1.556191 0.053984
v 0.046328 1.558720 0.052689
v 0.045547 1.558670 0.054025
v 0.044674 1.558669 0.055197
v 0.043490 1.558740 0.056040
v 0.041899 1.558949 0.056718
v 0.041275 1.557529 0.057343
v 0.040221 1.556198 0.058146
v 0.038503 1.554902 0.059306
v 0.036100 1.553915 0.060535
v 0.032831 1.553506 0.061546
v 0.029575 1.553449 0.062007
v 0.026455 1.553713 0.061876
v 0.023514 1.554084 0.061582
v 0.023404 1.553547 0.061998
v 0.023260 1.552877 0.062225
v 0.023127 1.552187 0.062296
v 0.023032 1.551473 0.062306
v 0.025973 1.550746 0.062453
v 0.029478 1.550127 0.062577
v 0.033956 1.549876 0.062316
v -0.043892 1.556762 0.056439
v -0.044675 1.558669 0.055197
v -0.043491 1.558741 0.056040
v -0.042643 1.557158 0.056984
v -0.041515 1.555662 0.058097
v -0.042654 1.555072 0.057759
v -0.040358 1.553437 0.059620
v -0.039526 1.554251 0.059580
v -0.036660 1.553155 0.061111
v -0.037245 1.552254 0.061532
v -0.033471 1.551742 0.062642
v -0.033168 1.552618 0.062187
v -0.029530 1.552783 0.062591
v -0.029500 1.551947 0.062944
v -0.026208 1.552409 0.062634
v -0.026330 1.553141 0.062374
v -0.023406 1.553548 0.061998
v -0.023262 1.552879 0.062226
v -0.023130 1.552189 0.062294
v -0.026097 1.551523 0.062560
v -0.029507 1.551043 0.062824
v -0.033725 1.550839 0.062600
v -0.037727 1.551355 0.061419
v -0.041025 1.552639 0.059062
v -0.043825 1.554392 0.056715
v -0.045060 1.556530 0.055289
v -0.045547 1.558669 0.054025
v -0.046067 1.556155 0.053984
v -0.046325 1.558716 0.052688
v -0.044631 1.553867 0.055782
v -0.041500 1.551684 0.058218
v -0.038106 1.550442 0.061111
v -0.033961 1.549879 0.062316
v -0.029482 1.550130 0.062577
v -0.025976 1.550749 0.062454
v -0.023035 1.551474 0.062306
v -0.026458 1.553715 0.061876
v -0.023516 1.554085 0.061582
v -0.029579 1.553451 0.062007
v -0.032835 1.553508 0.061546
v -0.036104 1.553918 0.060535
v -0.038505 1.554903 0.059306
v -0.040223 1.556200 0.058146
v -0.041276 1.557529 0.057343
v -0.041903 1.558953 0.056718
vt 0.1490 0.2651
vt 0.3286 0.1387
vt 0.3286 0.2651
vt 0.1490 0.1387
vt 0.0803 0.1387
vt 0.0803 0.2651
vt 0.0803 0.6199
vt 0.1490 0.6199
vt 0.3286 0.6199
vt 0.5078 0.2651
vt 0.5078 0.1387
vt 0.6772 0.1387
vt 0.6772 0.2651
vt 0.8467 0.2651
vt 0.8467 0.1387
vt 0.9209 0.1387
vt 0.9209 0.2651
vt 0.9209 0.6199
vt 0.8467 0.6199
vt 0.6772 0.6199
vt 0.5078 0.6199
vt 0.5078 0.9744
vt 0.6772 0.9744
vt 0.8467 0.9744
vt 0.9209 0.9744
vt 0.9951 0.9744
vt 0.9951 0.6199
vt 0.9951 0.2651
vt 0.9951 0.1387
vt 0.9951 0.0117
vt 0.9209 0.0117
vt 0.8467 0.0117
vt 0.6772 0.0117
vt 0.5078 0.0117
vt 0.3286 0.0117
vt 0.1490 0.0117
vt 0.0803 0.0117
vt 0.0115 0.0117
vt 0.0115 0.1387
vt 0.0115 0.2651
vt 0.0115 0.6199
vt 0.0115 0.9744
vt 0.0803 0.9744
vt 0.1490 0.9744
vt 0.3286 0.9744
vt 0.9209 0.2651
vt 0.9951 0.2651
vt 0.9951 0.1387
vt 0.9209 0.1387
vt 0.8467 0.1387
vt 0.8467 0.2651
vt 0.6772 0.2651
vt 0.6772 0.1387
vt 0.5078 0.1387
vt 0.5078 0.2651
vt 0.3286 0.2651
vt 0.3286 0.1387
vt 0.1490 0.1387
vt 0.1490 0.2651
vt 0.0803 0.2651
vt 0.0803 0.1387
vt 0.0115 0.1387
vt 0.0115 0.2651
vt 0.0115 0.6199
vt 0.0803 0.6199
vt 0.1490 0.6199
vt 0.3286 0.6199
vt 0.5078 0.6199
vt 0.6772 0.6199
vt 0.8467 0.6199
vt 0.9209 0.6199
vt 0.9951 0.6199
vt 0.9209 0.9744
vt 0.9951 0.9744
vt 0.8467 0.9744
vt 0.6772 0.9744
vt 0.5078 0.9744
vt 0.3286 0.9744
vt 0.1490 0.9744
vt 0.0803 0.9744
vt 0.0115 0.9744
vt 0.0803 0.0117
vt 0.0115 0.0117
vt 0.1490 0.0117
vt 0.3286 0.0117
vt 0.5078 0.0117
vt 0.6772 0.0117
vt 0.8467 0.0117
vt 0.9209 0.0117
vt 0.9951 0.0117
vn -0.0090 -0.1316 -0.9913
vn -0.1334 -0.5488 -0.8253
vn -0.1579 -0.2382 -0.9583
vn -0.0586 -0.5204 -0.8519
vn 0.0223 -0.5037 -0.8636
vn 0.0945 -0.1352 -0.9863
vn 0.0948 0.0919 -0.9912
vn 0.0308 0.1975 -0.9798
vn -0.1723 0.1280 -0.9767
vn -0.3219 -0.2825 -0.9037
vn -0.1732 -0.5863 -0.7914
vn -0.2694 -0.4910 -0.8285
vn -0.4990 -0.1611 -0.8515
vn -0.5656 -0.1560 -0.8098
vn -0.3321 -0.3965 -0.8558
vn -0.4026 -0.3113 -0.8608
vn -0.6041 -0.2000 -0.7714
vn -0.7647 -0.0896 -0.6381
vn -0.7034 0.0408 -0.7096
vn -0.6505 0.1382 -0.7468
vn -0.4318 0.0083 -0.9019
vn -0.4873 0.1175 -0.8653
vn -0.6899 0.2581 -0.6763
vn -0.7445 0.0651 -0.6645
vn -0.7974 -0.1356 -0.5881
vn -0.8326 -0.1496 -0.5333
vn -0.8371 -0.1232 -0.5330
vn -0.6996 -0.1921 -0.6882
vn -0.5245 -0.2145 -0.8239
vn -0.3665 -0.2872 -0.8850
vn -0.3106 -0.2850 -0.9068
vn -0.2344 -0.4798 -0.8455
vn -0.1528 -0.5739 -0.8045
vn -0.1402 -0.6470 -0.7495
vn -0.1295 -0.6104 -0.7814
vn -0.0685 -0.6489 -0.7578
vn -0.0153 -0.6528 -0.7574
vn 0.0122 -0.6205 -0.7841
vn 0.0456 -0.4805 -0.8758
vn 0.0759 -0.2088 -0.9750
vn 0.0700 -0.0711 -0.9950
vn 0.0802 -0.0032 -0.9968
vn 0.0664 0.1156 -0.9911
vn 0.0287 0.2513 -0.9675
vn -0.1911 0.2352 -0.9530
vn 0.6110 -0.1886 -0.7688
vn 0.7385 -0.1275 -0.6620
vn 0.4808 -0.2731 -0.8332
vn 0.3965 -0.3192 -0.8608
vn 0.3377 -0.3889 -0.8572
vn 0.5677 -0.1571 -0.8081
vn 0.5001 -0.1785 -0.8473
vn 0.2617 -0.4879 -0.8327
vn 0.1876 -0.5767 -0.7951
vn 0.3129 -0.2963 -0.9024
vn 0.1569 -0.2302 -0.9604
vn 0.1406 -0.5496 -0.8235
vn 0.0457 -0.5212 -0.8522
vn 0.0013 -0.1235 -0.9923
vn -0.0763 -0.1428 -0.9868
vn -0.0214 -0.5039 -0.8635
vn -0.0397 -0.4852 -0.8735
vn -0.0980 -0.2282 -0.9687
vn -0.0873 -0.0440 -0.9952
vn -0.1002 0.0960 -0.9903
vn -0.0189 0.1876 -0.9821
vn 0.1689 0.1262 -0.9775
vn 0.4376 0.0330 -0.8986
vn 0.6508 0.1597 -0.7422
vn 0.7058 0.0587 -0.7060
vn 0.7580 -0.1013 -0.6443
vn 0.8138 -0.1559 -0.5598
vn 0.8080 -0.0956 -0.5814
vn 0.8495 -0.1676 -0.5002
vn 0.7430 0.0449 -0.6677
vn 0.6795 0.2408 -0.6930
vn 0.5153 0.0735 -0.8539
vn 0.1920 0.2330 -0.9533
vn -0.0155 0.2607 -0.9653
vn -0.0976 0.1208 -0.9879
vn -0.0445 -0.0230 -0.9987
vn 0.0087 -0.6513 -0.7588
vn -0.0020 -0.6122 -0.7907
vn 0.0609 -0.6539 -0.7541
vn 0.1274 -0.6183 -0.7756
vn 0.1315 -0.6567 -0.7426
vn 0.1753 -0.5930 -0.7859
vn 0.2147 -0.4361 -0.8739
vn 0.3159 -0.3505 -0.8817
vn 0.4079 -0.2101 -0.8885
usemtl 25_glass3_1_1_1.001
s 1
f 91/91/91 92/92/92 93/93/93
f 92/92/92 91/91/91 94/94/94
f 94/94/94 91/91/91 95/95/95
f 95/95/95 91/91/91 96/96/96
f 96/96/96 91/91/91 97/97/97
f 97/97/97 91/91/91 98/98/98
f 98/98/98 91/91/91 99/99/99
f 99/99/99 91/91/91 93/93/93
f 100/100/100 99/99/99 93/93/93
f 92/92/92 100/100/100 93/93/93
f 101/101/101 100/100/100 92/92/92
f 102/102/102 100/100/100 101/101/101
f 103/103/103 100/100/100 102/102/102
f 104/104/104 103/103/103 102/102/102
f 105/105/105 104/104/104 102/102/102
f 106/106/106 104/104/104 105/105/105
f 107/107/107 104/104/104 106/106/106
f 108/108/108 104/104/104 107/107/107
f 109/109/109 104/104/104 108/108/108
f 110/110/110 104/104/104 109/109/109
f 103/103/103 104/104/104 110/110/110
f 100/100/100 103/103/103 110/110/110
f 111/111/111 100/100/100 110/110/110
f 99/99/99 100/100/100 111/111/111
f 112/112/112 99/99/99 111/111/111
f 110/110/110 112/112/112 111/111/111
f 113/113/113 112/112/112 110/110/110
f 114/114/114 113/113/113 110/110/110
f 109/109/109 114/114/114 110/110/110
f 108/108/108 114/114/114 109/109/109
f 115/115/115 114/114/114 108/108/108
f 116/116/116 115/115/115 108/108/108
f 117/117/117 116/116/116 108/108/108
f 118/118/118 117/117/117 108/108/108
f 107/107/107 118/118/118 108/108/108
f 106/106/106 118/118/118 107/107/107
f 119/119/119 118/118/118 106/106/106
f 120/120/120 119/119/119 106/106/106
f 121/121/121 120/120/120 106/106/106
f 122/122/122 121/121/121 106/106/106
f 105/105/105 122/122/122 106/106/106
f 102/102/102 122/122/122 105/105/105
f 123/123/123 122/122/122 102/102/102
f 124/124/124 123/123/123 102/102/102
f 101/101/101 124/124/124 102/102/102
f 92/92/92 124/124/124 101/101/101
f 125/125/125 124/124/124 92/92/92
f 126/126/126 125/125/125 92/92/92
f 94/94/94 126/126/126 92/92/92
f 95/95/95 126/126/126 94/94/94
f 127/127/127 126/126/126 95/95/95
f 128/128/128 127/127/127 95/95/95
f 129/129/129 128/128/128 95/95/95
f 130/130/130 129/129/129 95/95/95
f 96/96/96 130/130/130 95/95/95
f 97/97/97 130/130/130 96/96/96
f 131/131/131 130/130/130 97/97/97
f 132/132/132 131/131/131 97/97/97
f 133/133/133 132/132/132 97/97/97
f 134/134/134 133/133/133 97/97/97
f 98/98/98 134/134/134 97/97/97
f 99/99/99 134/134/134 98/98/98
f 135/135/135 134/134/134 99/99/99
f 112/112/112 135/135/135 99/99/99
f 136/136/136 137/137/137 138/138/138
f 139/139/139 136/136/136 138/138/138
f 140/140/140 136/136/136 139/139/139
f 141/141/141 136/136/136 140/140/140
f 142/142/142 141/141/141 140/140/140
f 143/143/143 142/142/142 140/140/140
f 144/144/144 142/142/142 143/143/143
f 145/145/145 142/142/142 144/144/144
f 146/146/146 145/145/145 144/144/144
f 147/147/147 146/146/146 144/144/144
f 148/148/148 146/146/146 147/147/147
f 149/149/149 146/146/146 148/148/148
f 150/150/150 149/149/149 148/148/148
f 151/151/151 150/150/150 148/148/148
f 152/152/152 150/150/150 151/151/151
f 153/153/153 150/150/150 152/152/152
f 154/154/154 150/150/150 153/153/153
f 155/155/155 150/150/150 154/154/154
f 156/156/156 150/150/150 155/155/155
f 149/149/149 150/150/150 156/156/156
f 146/146/146 149/149/149 156/156/156
f 157/157/157 146/146/146 156/156/156
f 158/158/158 146/146/146 157/157/157
f 145/145/145 146/146/146 158/158/158
f 142/142/142 145/145/145 158/158/158
f 159/159/159 142/142/142 158/158/158
f 160/160/160 142/142/142 159/159/159
f 141/141/141 142/142/142 160/160/160
f 136/136/136 141/141/141 160/160/160
f 161/161/161 136/136/136 160/160/160
f 162/162/162 136/136/136 161/161/161
f 137/137/137 136/136/136 162/162/162
f 163/163/163 164/164/164 162/162/162
f 161/161/161 163/163/163 162/162/162
f 160/160/160 163/163/163 161/161/161
f 165/165/165 163/163/163 160/160/160
f 166/166/166 165/165/165 160/160/160
f 159/159/159 166/166/166 160/160/160
f 158/158/158 166/166/166 159/159/159
f 167/167/167 166/166/166 158/158/158
f 168/168/168 167/167/167 158/158/158
f 157/157/157 168/168/168 158/158/158
f 156/156/156 168/168/168 157/157/157
f 169/169/169 168/168/168 156/156/156
f 170/170/170 169/169/169 156/156/156
f 155/155/155 170/170/170 156/156/156
f 154/154/154 170/170/170 155/155/155
f 171/171/171 170/170/170 154/154/154
f 172/172/172 173/173/173 152/152/152
f 151/151/151 172/172/172 152/152/152
f 148/148/148 172/172/172 151/151/151
f 174/174/174 172/172/172 148/148/148
f 175/175/175 174/174/174 148/148/148
f 147/147/147 175/175/175 148/148/148
f 144/144/144 175/175/175 147/147/147
f 176/176/176 175/175/175 144/144/144
f 177/177/177 176/176/176 144/144/144
f 143/143/143 177/177/177 144/144/144
f 140/140/140 177/177/177 143/143/143
f 178/178/178 177/177/177 140/140/140
f 179/179/179 178/178/178 140/140/140
f 139/139/139 179/179/179 140/140/140
f 138/138/138 179/179/179 139/139/139
f 180/180/180 179/179/179 138/138/138
